<svg id="svg" version="1.1" xmlns="http://www.w3.org/2000/svg" xmlns:xlink="http://www.w3.org/1999/xlink" width="400" height="86.81135225375627" viewBox="0, 0, 400,86.81135225375627"><g id="svgg"><path id="path0" d="M3.504 11.853 C 4.214 14.438,27.625 68.114,28.043 68.114 C 28.290 68.114,31.019 62.254,34.108 55.092 C 37.197 47.930,39.899 42.070,40.113 42.070 C 40.327 42.070,43.003 47.855,46.059 54.925 C 49.115 61.995,51.799 67.993,52.024 68.253 C 52.249 68.514,58.076 55.779,64.973 39.953 C 71.869 24.127,77.343 11.010,77.137 10.805 C 76.215 9.882,74.220 13.914,63.727 37.906 C 57.581 51.960,52.484 63.379,52.401 63.282 C 51.794 62.571,42.070 39.356,42.070 38.619 C 42.070 38.103,44.624 31.737,47.746 24.471 C 54.083 9.723,53.752 10.684,52.499 10.684 C 51.941 10.684,49.543 15.371,46.435 22.538 C 43.608 29.057,41.066 34.628,40.787 34.919 C 40.508 35.209,38.022 30.114,35.264 23.596 C 30.689 12.788,28.842 9.667,27.698 10.811 C 27.471 11.038,29.860 17.242,33.008 24.598 C 39.821 40.519,39.643 37.160,34.327 49.524 C 31.905 55.157,29.627 60.518,29.265 61.436 L 28.608 63.105 27.741 61.436 C 27.265 60.518,22.279 49.098,16.663 36.060 C 11.046 23.022,6.165 11.978,5.815 11.519 C 4.838 10.237,3.128 10.484,3.504 11.853 M183.639 39.399 C 183.639 64.478,183.766 68.114,184.641 68.114 C 185.487 68.114,185.643 66.535,185.646 57.930 C 185.652 41.455,189.199 35.392,198.832 35.392 C 208.572 35.392,211.677 40.676,211.682 57.262 C 211.686 67.667,211.741 68.114,213.022 68.114 C 214.578 68.114,215.050 49.601,213.625 44.468 C 210.490 33.178,195.823 29.367,187.888 37.782 L 185.643 40.162 185.643 25.423 C 185.643 12.767,185.501 10.684,184.641 10.684 C 183.766 10.684,183.639 14.320,183.639 39.399 M259.766 39.369 L 259.766 68.114 262.412 68.114 C 281.506 68.114,287.861 39.943,270.347 32.936 L 267.665 31.863 269.386 30.267 C 277.282 22.945,273.580 12.943,262.270 11.044 L 259.766 10.624 259.766 39.369 M292.487 34.681 C 292.487 60.061,292.592 61.029,295.702 64.358 C 298.810 67.685,305.175 69.984,305.175 67.780 C 305.175 67.229,304.819 66.778,304.384 66.778 C 302.326 66.778,297.750 63.802,296.352 61.555 C 294.845 59.132,294.822 58.772,294.613 34.891 C 294.434 14.421,294.254 10.684,293.444 10.684 C 292.631 10.684,292.487 14.295,292.487 34.681 M265.987 14.107 C 273.553 18.003,271.819 30.718,263.722 30.718 L 261.770 30.718 261.770 22.037 C 261.770 12.549,262.026 12.067,265.987 14.107 M118.879 39.232 C 118.896 60.741,119.165 62.230,123.647 65.649 C 126.092 67.514,131.322 69.026,131.930 68.043 C 132.532 67.070,131.580 66.110,130.011 66.108 C 123.632 66.097,121.541 61.526,121.538 47.579 L 121.536 36.060 126.544 36.060 C 130.551 36.060,131.553 35.860,131.553 35.058 C 131.553 34.257,130.551 34.057,126.544 34.057 L 121.536 34.057 121.536 27.045 C 121.536 20.479,121.451 20.033,120.200 20.033 C 118.895 20.033,118.865 20.474,118.879 39.232 M80.905 24.541 C 80.568 25.184,79.955 27.309,79.542 29.264 C 79.129 31.220,78.006 33.848,77.047 35.106 C 72.351 41.262,72.382 49.596,77.124 55.812 C 78.025 56.994,79.081 59.418,79.472 61.200 C 80.824 67.368,79.759 66.836,90.354 66.629 L 99.806 66.444 100.821 61.991 C 101.380 59.541,102.327 56.987,102.927 56.314 C 107.743 50.917,108.239 42.115,104.073 35.960 C 102.743 33.995,101.281 30.735,100.823 28.715 C 99.590 23.266,99.803 23.372,90.092 23.372 C 82.603 23.372,81.439 23.520,80.905 24.541 M98.164 27.324 C 98.164 28.029,98.345 29.078,98.567 29.656 C 98.932 30.607,98.699 30.612,96.146 29.711 C 92.642 28.475,87.977 28.477,84.500 29.715 C 81.371 30.830,81.522 30.931,82.257 28.214 L 82.843 26.043 90.503 26.043 C 97.610 26.043,98.164 26.136,98.164 27.324 M96.786 32.700 C 110.919 39.910,104.902 60.488,89.005 59.310 C 81.543 58.757,76.654 53.706,76.268 46.150 C 75.687 34.782,86.707 27.558,96.786 32.700 M152.748 34.343 C 137.554 39.766,137.048 61.609,151.972 67.845 C 159.221 70.873,172.287 66.836,172.287 61.567 C 172.287 59.980,172.230 59.996,169.631 62.345 C 154.594 75.930,133.837 54.848,147.780 40.152 C 153.720 33.891,162.765 33.848,169.827 40.048 C 172.284 42.206,172.287 42.207,172.287 40.586 C 172.287 35.442,160.354 31.630,152.748 34.343 M268.796 34.638 C 283.772 41.441,280.658 62.848,264.274 65.730 L 261.770 66.171 261.770 49.780 L 261.770 33.389 263.940 33.404 C 265.134 33.412,267.319 33.967,268.796 34.638 M321.870 34.777 C 304.255 42.741,310.077 68.806,329.464 68.775 C 348.322 68.745,353.992 42.939,336.895 34.960 C 332.521 32.919,326.151 32.841,321.870 34.777 M367.576 34.933 C 353.959 41.439,354.001 60.481,367.647 67.158 C 374.548 70.534,384.002 68.567,388.911 62.733 L 390.651 60.665 390.647 64.890 C 390.634 80.585,372.856 87.791,363.012 76.093 C 361.094 73.813,360.601 73.657,360.601 75.328 C 360.601 77.072,364.416 80.498,368.280 82.225 C 377.957 86.551,389.418 81.687,392.283 72.039 C 394.055 66.071,393.806 34.057,391.987 34.057 C 390.811 34.057,390.651 34.502,390.651 37.781 L 390.651 41.505 388.870 39.388 C 383.948 33.538,374.591 31.581,367.576 34.933 M89.220 35.781 C 88.402 37.912,88.787 45.223,89.760 46.030 C 91.185 47.213,98.497 46.693,98.497 45.409 C 98.497 44.671,97.573 44.354,94.992 44.206 L 91.486 44.004 91.486 39.364 C 91.486 34.797,90.311 32.939,89.220 35.781 M335.565 36.638 C 345.019 40.933,347.615 53.642,340.656 61.567 C 331.355 72.160,313.856 65.250,313.856 50.984 C 313.856 39.798,325.535 32.081,335.565 36.638 M381.636 36.661 C 396.654 43.629,391.905 66.695,375.438 66.763 C 360.881 66.824,354.327 48.592,365.475 39.050 C 369.903 35.259,376.510 34.283,381.636 36.661 M84.808 61.102 C 88.439 62.383,92.872 62.379,95.950 61.093 C 98.839 59.886,98.936 59.944,98.262 62.471 L 97.736 64.441 90.270 64.630 C 86.164 64.733,82.805 64.731,82.805 64.625 C 82.805 64.519,82.525 63.457,82.184 62.266 C 81.842 61.075,81.654 60.100,81.766 60.100 C 81.877 60.100,83.247 60.551,84.808 61.102 " stroke="none" fill="#000000" fill-rule="evenodd"></path></g></svg>